<?xml version="1.0" standalone="no"?>
<!DOCTYPE svg PUBLIC "-//W3C//DTD SVG 20010904//EN"
 "http://www.w3.org/TR/2001/REC-SVG-20010904/DTD/svg10.dtd">
<svg version="1.0" xmlns="http://www.w3.org/2000/svg"
 width="884.000000pt" height="222.000000pt" viewBox="0 0 884.000000 222.000000"
 preserveAspectRatio="xMidYMid meet">

<g transform="translate(0.000000,222.000000) scale(0.100000,-0.100000)"
fill="#000000" stroke="none">
<path d="M1154 2156 c-76 -11 -96 -17 -123 -42 -69 -61 -109 -176 -97 -278 3
-28 6 -85 7 -126 0 -41 5 -127 11 -190 7 -81 6 -123 -1 -144 -9 -21 -8 -32 0
-42 29 -36 71 8 45 48 -7 13 -16 57 -20 98 -3 41 -10 122 -16 180 -24 243 -11
341 53 414 l32 37 93 2 c73 2 95 -1 102 -13 10 -15 11 -55 13 -328 1 -234 19
-160 25 104 3 123 8 224 12 224 12 0 49 -45 60 -75 7 -16 12 -46 12 -65 0 -19
4 -54 9 -78 5 -24 6 -49 2 -55 -4 -7 -6 -22 -5 -33 2 -12 -4 -49 -12 -82 -18
-68 -20 -91 -7 -76 5 5 16 42 26 82 13 56 16 101 13 195 -5 137 -19 178 -70
205 -17 10 -39 25 -50 35 -10 9 -19 17 -20 16 -2 -1 -44 -7 -94 -13z"/>
<path d="M1285 2160 c4 -6 11 -8 16 -4 5 3 16 0 24 -6 8 -7 15 -10 15 -7 0 16
63 -19 89 -48 58 -67 61 -163 10 -367 -54 -219 -72 -319 -61 -330 17 -17 45
10 38 38 -6 21 27 233 59 382 37 177 4 286 -100 333 -43 20 -100 26 -90 9z"/>
<path d="M970 2130 c-81 -16 -143 -58 -174 -117 -8 -17 -20 -59 -25 -94 -17
-103 -43 -360 -37 -366 16 -17 25 23 31 149 14 309 45 374 190 407 52 12 95
32 65 30 -8 -1 -31 -5 -50 -9z"/>
<path d="M943 2066 c-49 -42 -85 -120 -89 -195 -11 -206 -11 -301 0 -301 8 0
11 51 11 168 0 153 2 171 23 217 13 28 33 61 46 75 55 61 59 78 9 36z"/>
<path d="M5212 1773 c-5 -10 -15 -51 -22 -90 -10 -65 -14 -73 -34 -73 -46 0
-46 2 -46 -482 l0 -458 24 -6 c29 -7 36 -28 36 -109 0 -33 4 -65 8 -72 6 -9
75 -11 289 -6 l282 6 6 49 c7 47 8 48 41 48 21 0 37 6 40 15 3 8 16 222 29
477 l22 463 3 -415 c1 -228 5 -464 9 -525 l6 -110 115 -3 c172 -4 160 -14 160
128 0 107 2 120 18 121 9 1 82 4 162 8 l145 6 3 68 c3 62 5 67 22 62 11 -3 28
-1 40 5 20 11 20 16 18 443 l-3 432 -190 -3 c-104 -2 -239 -6 -300 -10 l-110
-7 -3 -42 c-3 -42 -3 -42 -45 -45 l-42 -3 -5 -50 c-3 -33 -7 -44 -12 -32 -5
12 -18 17 -43 17 l-35 0 0 65 c0 76 14 69 -170 85 -112 11 -329 42 -386 56
-15 4 -25 0 -32 -13z m158 -63 c63 -11 175 -25 249 -32 l133 -12 -6 -68 -6
-68 45 0 c42 0 45 -2 45 -27 0 -16 -9 -210 -20 -433 -11 -223 -20 -413 -20
-423 0 -16 -5 -18 -39 -12 l-39 6 -7 -54 -7 -55 -232 -4 c-148 -2 -234 0 -238
7 -4 5 -8 37 -8 70 0 80 -8 103 -34 107 -21 3 -21 4 -24 318 -2 173 0 360 3
416 7 99 7 100 36 111 17 7 29 19 29 29 0 17 21 144 24 144 0 0 53 -9 116 -20z
m1170 -390 l0 -390 -40 0 -40 0 0 -70 0 -70 -167 -2 -168 -3 4 -122 3 -121
-86 -7 c-48 -4 -89 -5 -92 -2 -3 2 -8 244 -11 536 l-6 531 50 0 51 0 -6 45 -5
45 79 1 c44 1 140 5 214 8 74 4 154 8 178 9 l42 2 0 -390z"/>
<path d="M5340 1121 l0 -391 135 0 134 0 5 33 c3 17 10 145 16 282 6 138 13
291 16 341 l6 90 -123 13 c-68 6 -139 15 -156 18 l-33 5 0 -391z m250 275 c0
-17 -7 -157 -15 -311 -8 -154 -15 -283 -15 -287 0 -5 -36 -8 -80 -8 l-80 0 0
328 0 327 95 -9 95 -10 0 -30z"/>
<path d="M6168 1493 l-48 -4 0 -250 0 -249 119 0 119 0 6 73 c3 39 8 154 12
255 l7 182 -84 -2 c-46 -1 -105 -3 -131 -5z m152 -125 c0 -40 -3 -130 -7 -200
l-6 -128 -64 0 -63 0 0 200 0 200 70 0 70 0 0 -72z"/>
<path d="M8190 1771 l-95 -6 -3 -47 c-3 -47 -4 -48 -43 -54 l-39 -7 0 -436
c-1 -301 -4 -431 -11 -418 -9 15 -29 17 -194 17 l-185 0 0 33 c0 19 3 68 6
110 l7 75 146 7 c80 4 152 12 159 18 11 8 12 39 6 146 -3 75 -11 141 -16 148
-7 8 -48 10 -154 6 l-144 -6 0 46 c0 26 1 48 3 48 1 1 79 5 172 8 l170 6 7
125 c4 69 4 138 1 154 l-5 28 -275 -4 c-300 -4 -293 -3 -293 -65 0 -27 -4 -32
-27 -35 l-28 -3 -6 -345 c-3 -190 -10 -422 -14 -516 l-8 -171 37 -7 c36 -7 36
-8 36 -55 0 -32 5 -53 15 -61 13 -10 75 -12 298 -6 155 4 286 11 290 15 5 5
23 5 40 0 18 -5 75 -9 129 -9 130 0 128 -2 128 153 0 74 4 117 9 112 5 -6 43
-64 85 -130 92 -145 94 -148 116 -142 35 9 200 132 206 153 6 22 -39 104 -128
236 l-38 57 58 6 c31 4 62 8 68 10 14 4 25 763 12 782 -8 10 -58 14 -333 27
-38 1 -113 0 -165 -3z m-260 -156 l0 -105 -175 0 -175 0 0 -99 0 -99 28 -5
c15 -3 84 -3 155 0 l127 6 2 -91 c0 -51 1 -98 2 -104 1 -10 -40 -15 -153 -21
-85 -4 -157 -10 -160 -13 -3 -3 -7 -78 -9 -166 l-3 -161 190 7 191 7 0 -106 0
-105 -177 0 c-98 0 -208 -3 -245 -7 l-68 -6 0 60 0 60 -41 7 -41 7 6 52 c3 29
9 240 12 470 l7 417 34 0 c32 0 33 1 33 45 l0 44 108 4 c59 1 162 4 230 5
l122 2 0 -105z m709 88 c4 -4 3 -82 -1 -173 -5 -91 -7 -244 -5 -342 l4 -176
-89 -7 c-48 -4 -88 -11 -88 -16 0 -5 22 -40 49 -77 57 -79 156 -241 150 -245
-2 -2 -36 -26 -76 -55 l-71 -51 -52 82 c-80 126 -202 297 -211 297 -5 0 -9
-83 -9 -185 l0 -185 -90 0 -90 0 0 520 0 520 46 0 45 0 -7 57 -7 56 248 -5
c136 -4 250 -10 254 -15z"/>
<path d="M8242 1358 l3 -152 95 3 c52 1 98 6 101 9 4 4 9 71 13 150 l6 142
-110 0 -111 0 3 -152z m158 7 c0 -86 -2 -95 -19 -95 -10 0 -33 -3 -50 -6 l-31
-6 0 101 0 101 50 0 50 0 0 -95z"/>
<path d="M6940 1755 c-129 -7 -236 -13 -237 -14 -2 0 -3 -19 -3 -40 0 -40 0
-40 -42 -43 l-43 -3 -7 -85 c-9 -97 5 -1066 14 -1076 11 -11 251 -4 265 8 9 7
13 43 13 124 l0 114 153 0 c106 0 157 4 165 12 7 7 12 38 12 70 0 57 1 58 28
58 15 0 33 5 40 12 17 17 17 849 0 866 -14 14 -32 14 -358 -3z m319 -622 l1
-192 -42 -3 -43 -3 -3 -67 -3 -68 -67 0 c-37 0 -112 -3 -166 -7 l-99 -6 6
-124 7 -123 -89 0 -88 0 -6 128 c-4 70 -7 311 -7 535 l0 408 45 -7 45 -6 0 46
c0 25 1 46 3 47 1 1 112 6 247 13 l245 11 6 -195 c4 -107 7 -281 8 -387z"/>
<path d="M6923 1503 l-83 -4 0 -255 0 -255 118 3 117 3 6 95 c4 52 10 168 13
258 l7 162 -48 -2 c-26 -1 -85 -4 -130 -5z m114 -175 c-4 -66 -7 -156 -7 -200
l0 -78 -70 0 -70 0 0 194 c0 146 3 196 13 199 6 3 41 6 76 6 l64 1 -6 -122z"/>
<path d="M4464 1735 c-108 -13 -124 -18 -124 -41 0 -18 9 -19 -96 17 l-89 30
-248 -7 c-227 -6 -250 -8 -260 -25 -7 -11 -19 -19 -28 -19 -34 0 -37 -21 -23
-145 8 -66 18 -226 22 -355 l7 -235 213 -3 212 -2 0 -85 0 -85 -60 0 c-33 0
-63 -1 -67 -2 -5 -2 -10 22 -13 52 l-5 55 -115 -2 c-129 -3 -156 -7 -162 -25
-2 -7 -1 -92 2 -188 l5 -175 37 -3 c31 -3 38 -8 47 -34 10 -29 13 -30 48 -24
150 26 249 37 391 42 89 4 166 12 169 17 3 6 8 180 9 389 l4 378 -214 0 c-246
0 -226 -10 -226 108 l0 62 61 0 60 0 -6 -44 c-8 -54 -10 -53 143 -92 89 -23
114 -26 121 -16 4 7 21 72 37 145 l29 132 7 -55 c4 -30 10 -272 14 -538 4
-265 10 -484 13 -486 3 -2 60 -7 127 -11 164 -10 154 -23 154 211 l0 184 70 0
69 0 -6 -186 c-5 -154 -4 -187 8 -195 12 -7 267 -14 270 -6 4 8 35 1214 32
1223 -2 6 -21 14 -41 18 -55 9 -230 7 -236 -2 -3 -5 -8 -124 -12 -265 l-7
-257 -77 0 -77 0 -7 161 c-11 255 -24 381 -38 391 -15 9 -13 9 -144 -7z m-234
-73 c61 -22 75 -31 74 -47 -2 -27 -62 -276 -67 -282 -3 -2 -22 0 -43 6 -22 5
-58 15 -82 21 l-43 11 7 55 6 54 -122 0 -123 0 7 -61 c3 -34 6 -95 6 -135 l0
-74 221 0 222 0 -7 -92 c-3 -50 -6 -202 -6 -338 l0 -247 -162 -6 c-90 -4 -203
-13 -253 -22 -49 -8 -93 -15 -97 -15 -5 0 -8 11 -8 25 0 22 -4 25 -34 25 -33
0 -33 1 -40 53 -3 28 -6 94 -6 145 l0 92 53 0 c28 0 69 3 90 6 l37 7 0 -68 c0
-53 3 -66 14 -62 8 3 62 9 120 13 l106 7 0 137 0 137 -215 -5 -215 -5 0 164
c0 150 -11 331 -26 435 -6 39 -4 42 25 52 17 6 31 16 31 21 0 7 73 12 208 14
114 1 216 3 227 4 11 1 54 -10 95 -25z m345 -24 c7 -63 25 -383 25 -450 l0
-48 128 0 129 0 6 167 c4 91 7 211 7 265 l0 100 88 -7 c48 -4 89 -9 91 -11 4
-4 -16 -843 -25 -1017 l-6 -118 -87 3 -86 3 4 193 3 193 -123 -3 -124 -3 -3
-192 -2 -193 -92 0 -91 0 7 148 c4 81 1 305 -6 497 -7 193 -13 386 -13 430 l0
80 50 6 c117 14 113 15 120 -43z"/>
<path d="M2520 1720 c-118 -3 -221 -9 -227 -13 -7 -5 -13 -26 -13 -48 0 -35
-3 -39 -24 -39 -14 0 -27 -3 -30 -8 -2 -4 -7 -174 -10 -377 -4 -204 -10 -428
-15 -500 -10 -142 -6 -155 40 -155 28 0 29 -1 29 -54 0 -32 5 -58 13 -65 10
-7 95 -9 297 -3 241 6 284 9 293 23 6 10 7 66 2 152 l-7 137 -190 0 -190 0 4
104 c1 57 6 107 9 110 3 3 71 10 151 14 80 5 150 12 156 16 14 9 5 260 -10
289 -9 17 -20 18 -154 11 l-144 -7 0 52 0 51 159 0 c88 0 166 3 175 6 14 5 16
28 16 154 0 165 2 162 -73 158 -23 -1 -139 -5 -257 -8z m280 -149 l0 -98 -31
-7 c-17 -3 -96 -6 -175 -6 l-144 0 0 -101 0 -100 149 3 150 3 5 -29 c3 -16 6
-61 6 -101 l0 -72 -37 -7 c-21 -3 -91 -6 -155 -6 -64 0 -119 -3 -121 -7 -3 -5
-7 -80 -8 -167 l-4 -159 193 2 192 2 0 -105 0 -106 -250 0 -249 0 -3 58 c-3
57 -3 57 -37 60 l-34 3 7 82 c3 45 9 256 13 470 l6 387 35 0 35 0 -5 45 -5 44
46 4 c25 2 130 4 234 5 l187 2 0 -99z"/>
<path d="M2903 1212 c-14 -9 -27 -272 -14 -292 8 -11 50 -15 223 -17 117 -2
265 0 328 4 l115 8 3 100 c2 55 0 124 -3 152 l-6 53 -318 -1 c-174 0 -322 -4
-328 -7z m597 -70 c0 -16 3 -63 6 -105 l7 -77 -287 0 -286 0 0 100 0 100 223
3 c122 1 248 3 280 5 57 2 57 2 57 -26z"/>
<path d="M1725 533 c-13 -12 -15 -26 -11 -57 11 -73 15 -111 10 -93 -5 14 -12
17 -31 12 -17 -4 -29 -1 -34 7 -14 22 -10 28 16 28 18 0 25 5 25 20 0 15 -7
20 -24 20 -14 0 -28 5 -31 10 -4 6 5 10 20 10 25 0 42 20 31 38 -7 11 -73 -1
-87 -15 -11 -11 5 -139 20 -157 8 -10 24 -10 73 -1 54 9 63 14 66 34 l4 23 22
-21 c21 -19 24 -20 36 -6 11 13 10 19 -5 35 -10 11 -13 20 -7 20 7 0 10 12 6
33 -13 78 -12 77 -48 77 -19 0 -42 -8 -51 -17z m55 -43 c0 -11 -4 -20 -9 -20
-11 0 -22 26 -14 34 12 12 23 5 23 -14z"/>
<path d="M1525 506 c-32 -9 -41 -17 -46 -41 -7 -30 -7 -30 -8 -3 -1 34 -7 37
-59 26 -30 -7 -46 -16 -52 -31 -7 -20 -9 -20 -15 -4 -11 27 -91 24 -106 -4 -8
-16 -13 -18 -19 -9 -4 7 -15 10 -24 7 -13 -5 -16 -14 -11 -40 5 -26 3 -36 -9
-40 -11 -5 -17 3 -22 29 -3 19 -10 36 -14 39 -9 6 -143 -15 -152 -23 -4 -4 -2
-29 4 -56 10 -48 10 -48 44 -43 25 4 34 2 34 -8 0 -18 -17 -28 -22 -13 -8 22
-38 -1 -38 -28 0 -26 1 -26 52 -20 29 4 54 9 56 11 2 2 1 27 -3 55 l-7 51 -36
-3 c-36 -3 -56 15 -27 25 8 4 15 2 15 -3 0 -6 9 -10 20 -10 15 0 20 7 21 28
l1 27 8 -29 c5 -15 12 -52 16 -82 5 -44 10 -54 25 -54 14 0 19 7 19 30 0 20 5
30 15 30 9 0 15 -9 15 -25 0 -18 5 -25 20 -25 17 0 20 7 21 43 l0 42 12 -35
c12 -33 15 -35 52 -32 58 5 66 15 60 81 l-4 56 12 -60 c10 -49 16 -60 32 -60
13 0 20 7 20 20 0 13 8 21 22 23 22 3 26 11 36 67 2 11 7 -6 11 -37 6 -47 11
-58 26 -58 12 0 20 8 22 23 2 14 11 23 25 25 14 2 25 12 29 26 7 29 -8 119
-21 122 -6 1 -28 -3 -50 -10z m31 -62 c4 -14 2 -30 -5 -37 -14 -14 -17 -10
-26 31 -5 25 -3 32 9 32 9 0 19 -12 22 -26z m-118 -26 c-4 -41 -24 -47 -30 -8
-5 33 -2 40 19 40 10 0 13 -10 11 -32z m-120 -37 c2 -29 -1 -47 -10 -52 -15
-10 -25 17 -27 69 -1 27 3 33 17 30 12 -2 18 -15 20 -47z m-81 -8 c-3 -10 -5
-2 -5 17 0 19 2 27 5 18 2 -10 2 -26 0 -35z"/>
<path d="M790 381 c-24 -7 -25 -10 -22 -82 4 -90 13 -102 70 -93 32 5 42 11
42 25 0 15 -7 19 -35 19 -42 0 -49 26 -9 36 34 9 28 39 -9 39 -36 -1 -34 10 3
23 21 8 28 16 24 26 -6 17 -23 19 -64 7z"/>
<path d="M945 333 c-11 -2 -30 -6 -42 -9 -15 -3 -23 -12 -23 -25 0 -17 4 -19
38 -14 20 4 43 8 50 10 13 5 17 46 5 44 -5 -1 -17 -3 -28 -6z"/>
</g>
</svg>
